<?xml version="1.0" encoding="UTF-8"?>
<svg xmlns="http://www.w3.org/2000/svg" xmlns:xlink="http://www.w3.org/1999/xlink" width="350px" height="280px" viewBox="0 0 350 280" version="1.1">
<g id="surface1">
<path style=" stroke:none;fill-rule:nonzero;fill:rgb(2.745098%,71.764706%,76.862745%);fill-opacity:1;" d="M 50.632812 182.933594 C 51.800781 186.480469 52.964844 187.414062 54.832031 188.90625 C 56.234375 190.027344 63.933594 193.945312 64.632812 195.253906 C 65.101562 196.1875 65.101562 197.492188 63.464844 198.425781 C 61.601562 199.359375 58.101562 199.359375 55.765625 198.988281 C 50.632812 198.425781 46.898438 196 42.699219 193.574219 C 42.234375 193.945312 40.601562 193.386719 38.734375 192.640625 C 37.332031 192.078125 36.632812 191.519531 36.398438 190.398438 C 36.167969 189.652344 36.398438 188.160156 36.632812 187.414062 C 36.867188 185.359375 38.035156 183.679688 39.199219 181.625 L 44.101562 180.691406 Z M 50.632812 182.933594 "/>
<path style=" stroke:none;fill-rule:nonzero;fill:rgb(82.745098%,86.666667%,87.058824%);fill-opacity:1;" d="M 64.867188 195.8125 C 65.101562 196.558594 64.632812 197.679688 63.464844 198.425781 C 61.601562 199.359375 58.101562 199.359375 55.765625 198.988281 C 50.632812 198.425781 46.898438 196 42.699219 193.574219 C 42.234375 193.945312 40.601562 193.386719 38.734375 192.640625 C 37.332031 192.078125 36.632812 191.519531 36.398438 190.398438 L 36.398438 188.90625 C 37.101562 190.398438 41.066406 191.894531 42.933594 192.078125 C 46.898438 194.507812 50.867188 196.746094 56 197.308594 C 58.332031 197.679688 61.832031 197.679688 63.699219 196.746094 C 64.167969 196.1875 64.632812 196 64.867188 195.8125 Z M 64.867188 195.8125 "/>
<path style=" stroke:none;fill-rule:nonzero;fill:rgb(2.745098%,61.568627%,65.882353%);fill-opacity:1;" d="M 75.132812 178.265625 C 76.300781 181.8125 77.464844 182.746094 79.332031 184.238281 C 80.734375 185.359375 88.433594 189.28125 89.132812 190.585938 C 89.601562 191.519531 89.601562 192.828125 87.964844 193.761719 C 86.101562 194.691406 82.601562 194.691406 80.265625 194.320312 C 75.132812 193.761719 71.398438 191.332031 67.199219 188.90625 C 66.734375 189.28125 65.101562 188.71875 63.234375 187.972656 C 61.832031 187.414062 61.132812 186.851562 60.898438 185.734375 C 60.667969 184.988281 60.898438 183.492188 61.132812 182.746094 C 61.367188 180.691406 62.535156 179.011719 63.699219 176.960938 L 68.601562 176.027344 Z M 75.132812 178.265625 "/>
<path style=" stroke:none;fill-rule:nonzero;fill:rgb(74.509804%,79.607843%,80%);fill-opacity:1;" d="M 89.367188 191.148438 C 89.601562 191.894531 89.132812 193.011719 87.964844 193.761719 C 86.101562 194.691406 82.601562 194.691406 80.265625 194.320312 C 75.132812 193.761719 71.398438 191.332031 67.199219 188.90625 C 66.734375 189.28125 65.101562 188.71875 63.234375 187.972656 C 61.832031 187.414062 61.132812 186.851562 60.898438 185.734375 L 60.898438 184.238281 C 61.601562 185.734375 65.566406 187.226562 67.433594 187.414062 C 71.398438 189.839844 75.367188 192.078125 80.5 192.640625 C 82.832031 193.011719 86.332031 193.011719 88.199219 192.078125 C 88.667969 191.707031 89.132812 191.519531 89.367188 191.148438 Z M 89.367188 191.148438 "/>
<path style=" stroke:none;fill-rule:nonzero;fill:rgb(1.176471%,15.294118%,27.843137%);fill-opacity:1;" d="M 49.933594 96.507812 C 48.765625 101.171875 47.132812 105.28125 46.667969 109.945312 C 45.734375 118.90625 58.101562 133.652344 58.800781 143.359375 L 58.332031 150.453125 C 57.398438 157.734375 59.035156 167.253906 61.132812 179.011719 C 63.464844 183.308594 76.066406 184.238281 77.234375 182.933594 C 77.464844 182.558594 75.132812 141.679688 75.832031 136.640625 C 76.535156 122.265625 69.300781 109.199219 70 93.707031 Z M 49.933594 96.507812 "/>
<path style=" stroke:none;fill-rule:nonzero;fill:rgb(1.960784%,20.392157%,36.862745%);fill-opacity:1;" d="M 36.398438 98.746094 C 35.234375 106.398438 33.132812 109.945312 35 117.972656 C 36.867188 126 38.265625 135.148438 38.734375 143.359375 L 37.332031 154 C 36.398438 161.28125 38.5 171.171875 37.566406 182.375 C 35.933594 187.414062 52.035156 190.773438 53.667969 187.785156 L 57.167969 140.375 C 57.867188 126 58.332031 114.425781 59.035156 99.121094 Z M 36.398438 98.746094 "/>
<path style=" stroke:none;fill-rule:nonzero;fill:rgb(78.431373%,84.705882%,85.098039%);fill-opacity:1;" d="M 69.765625 77.652344 C 71.167969 81.199219 77.234375 81.574219 80.265625 80.453125 C 82.132812 79.707031 83.300781 76.160156 83.535156 74.292969 C 82.601562 68.320312 77 48.160156 73.265625 45.171875 C 68.832031 41.8125 60.667969 41.441406 59.265625 51.148438 C 58.566406 55.625 66.035156 69.253906 69.765625 77.652344 Z M 69.765625 77.652344 "/>
<path style=" stroke:none;fill-rule:nonzero;fill:rgb(86.27451%,90.588235%,90.980392%);fill-opacity:1;" d="M 32.667969 60.292969 C 30.800781 64.960938 32.199219 71.308594 32.898438 76.160156 C 34.066406 83.253906 34.765625 87.171875 35 95.945312 C 35 98.558594 33.832031 106.960938 34.300781 111.625 C 42.933594 115.921875 68.132812 109.945312 70 101.546875 L 74.667969 66.828125 C 75.832031 60.667969 77.699219 41.253906 65.800781 42.558594 C 61.367188 43.121094 54.601562 42.746094 48.066406 45.921875 C 39.667969 49.652344 32.667969 57.121094 32.667969 60.292969 Z M 32.667969 60.292969 "/>
<path style=" stroke:none;fill-rule:nonzero;fill:rgb(92.156863%,95.686275%,96.078431%);fill-opacity:1;" d="M 41.300781 89.601562 C 45.5 94.078125 54.832031 90.71875 54.832031 87.171875 L 49.933594 61.039062 C 48.535156 52.265625 28.699219 50.773438 33.832031 67.761719 C 35.464844 73.359375 38.734375 80.453125 40.367188 87.171875 C 40.367188 88.105469 40.601562 89.039062 41.300781 89.601562 Z M 41.300781 89.601562 "/>
<path style=" stroke:none;fill-rule:nonzero;fill:rgb(94.117647%,75.686275%,49.019608%);fill-opacity:1;" d="M 49 37.707031 C 49.464844 40.320312 48.765625 45.546875 48.066406 47.972656 C 46.898438 52.078125 61.601562 56 61.132812 48.347656 C 61.132812 47.226562 61.132812 46.105469 61.367188 44.988281 Z M 74.199219 35.464844 C 75.832031 38.453125 78.632812 41.8125 77.699219 44.988281 C 77.464844 46.105469 76.300781 47.226562 77 49.652344 L 70.464844 51.148438 C 70.234375 49.464844 70.464844 48.71875 70.234375 47.972656 C 70 47.039062 68.132812 46.667969 67.433594 44.425781 C 66.5 42.933594 65.101562 41.441406 66.265625 40.878906 C 66.964844 40.691406 67.667969 41.441406 68.132812 42 C 68.601562 42.558594 69.066406 42.933594 69.535156 43.492188 C 69.535156 42.933594 69.765625 42.375 69.765625 41.8125 C 69.300781 40.691406 68.832031 39.761719 68.367188 38.640625 L 67.199219 35.28125 C 66.964844 34.535156 68.832031 33.601562 70.234375 33.414062 C 73.035156 33.039062 73.5 34.160156 74.199219 35.464844 Z M 74.199219 35.464844 "/>
<path style=" stroke:none;fill-rule:nonzero;fill:rgb(92.156863%,95.686275%,96.078431%);fill-opacity:1;" d="M 48.300781 45.921875 C 50.398438 49.652344 54.832031 51.707031 57.398438 52.640625 L 55.300781 57.121094 C 49 53.574219 47.832031 51.332031 46.667969 49.28125 Z M 48.300781 45.921875 "/>
<path style=" stroke:none;fill-rule:nonzero;fill:rgb(92.156863%,95.686275%,96.078431%);fill-opacity:1;" d="M 61.367188 47.414062 C 60.667969 49.464844 59.265625 50.585938 57.167969 52.453125 L 59.964844 56.375 C 62.066406 53.386719 62.300781 52.265625 61.832031 49.464844 Z M 61.367188 47.414062 "/>
<path style=" stroke:none;fill-rule:nonzero;fill:rgb(100%,85.882353%,65.490196%);fill-opacity:1;" d="M 70 35.09375 C 70 38.640625 66.265625 47.601562 63 49.464844 C 62.300781 49.839844 60.433594 50.214844 59.5 50.027344 C 57.632812 49.839844 53.199219 46.480469 52.035156 45.546875 C 50.167969 43.867188 50.167969 42.746094 49.699219 39.574219 L 48.535156 36.960938 L 49 28.1875 C 55.535156 26.320312 61.132812 25.011719 64.167969 25.761719 C 67.199219 26.507812 69.765625 28.558594 70 35.09375 Z M 70 35.09375 "/>
<path style=" stroke:none;fill-rule:nonzero;fill:rgb(14.901961%,8.235294%,1.960784%);fill-opacity:1;" d="M 72.332031 36.398438 C 71.632812 34.535156 73.5 30.800781 69.535156 27.253906 C 70.234375 27.625 70.933594 28.1875 71.398438 28.746094 C 70.933594 26.691406 70.464844 25.761719 67.433594 24.828125 C 68.367188 25.011719 68.601562 25.011719 69.535156 25.199219 C 67.667969 21.839844 58.332031 19.785156 53.199219 22.398438 C 48.066406 23.519531 45.035156 27.066406 45.265625 30.800781 C 45.5 33.414062 46.667969 36.585938 48.300781 39.386719 C 48.765625 40.507812 49.234375 41.441406 49.234375 42 L 49.699219 39.199219 C 48.300781 37.332031 49 34.535156 50.632812 34.160156 C 53.199219 33.601562 53.433594 35.28125 53.433594 38.828125 C 55.300781 35.464844 55.300781 35.28125 58.332031 32.480469 C 61.367188 31.921875 67.667969 37.519531 72.332031 36.398438 Z M 72.332031 36.398438 "/>
<path style=" stroke:none;fill-rule:nonzero;fill:rgb(92.156863%,95.686275%,96.078431%);fill-opacity:1;" d="M 57.632812 76.71875 L 72.800781 72.054688 C 76.300781 72.425781 78.632812 75.601562 77.464844 78.214844 C 67.898438 83.253906 59.265625 88.292969 51.800781 90.71875 C 47.367188 92.027344 46.199219 92.960938 43.398438 89.039062 C 41.066406 86.054688 46.667969 81.199219 51.101562 79.332031 C 52.734375 78.585938 55.300781 77.464844 57.632812 76.71875 Z M 57.632812 76.71875 "/>
<path style=" stroke:none;fill-rule:nonzero;fill:rgb(78.431373%,84.705882%,85.098039%);fill-opacity:1;" d="M 70.699219 65.707031 L 69.300781 49.09375 C 70.699219 47.414062 75.832031 46.667969 77.464844 48.160156 C 79.566406 56.933594 84 64.214844 83.765625 70.746094 C 83.535156 74.480469 84.234375 80.078125 78.632812 81.011719 C 74.199219 81.761719 72.101562 75.972656 71.632812 72.238281 C 71.398438 70.375 70.933594 67.574219 70.699219 65.707031 Z M 70.699219 65.707031 "/>
<path style=" stroke:none;fill-rule:nonzero;fill:rgb(2.745098%,61.568627%,65.882353%);fill-opacity:1;" d="M 235.433594 49.839844 C 232.867188 54.691406 230.300781 64.960938 230.300781 71.867188 C 230.300781 76.347656 236.832031 78.398438 238.699219 74.480469 C 241.964844 68.132812 246.867188 57.867188 245.234375 52.078125 C 243.832031 47.039062 237.066406 46.480469 235.433594 49.839844 Z M 235.433594 49.839844 "/>
<path style=" stroke:none;fill-rule:nonzero;fill:rgb(1.960784%,20.392157%,36.862745%);fill-opacity:1;" d="M 257.601562 154.375 C 258.765625 156.238281 259.699219 158.851562 259.933594 161.652344 C 260.398438 166.878906 259.464844 172.105469 261.566406 172.480469 C 264.132812 172.851562 266 170.800781 267.398438 169.492188 C 270.433594 166.320312 271.601562 161.839844 272.535156 157.921875 C 273.234375 157.359375 273.464844 156.425781 273.933594 154.933594 C 274.398438 153.625 274.398438 152.878906 273.699219 152.132812 C 273.234375 151.574219 272.300781 150.640625 271.601562 150.265625 C 267.632812 147.839844 264.832031 148.960938 262.964844 148.214844 L 260.167969 149.332031 Z M 257.601562 154.375 "/>
<path style=" stroke:none;fill-rule:nonzero;fill:rgb(99.215686%,79.215686%,0.392157%);fill-opacity:1;" d="M 261.332031 172.292969 C 261.332031 172.292969 261.566406 172.292969 261.800781 172.480469 C 264.367188 172.851562 266.234375 170.800781 267.632812 169.492188 C 270.667969 166.320312 271.832031 161.839844 272.765625 157.921875 C 273.464844 157.359375 273.699219 156.425781 274.167969 154.933594 C 274.632812 153.625 274.632812 152.878906 273.933594 152.132812 C 273.464844 151.574219 272.535156 150.640625 271.832031 150.265625 C 271.132812 149.894531 270.433594 149.519531 269.734375 149.332031 C 270.199219 149.707031 270.667969 150.265625 271.132812 150.640625 C 272.765625 152.507812 270.898438 156.425781 270.433594 158.480469 C 269.5 162.027344 268.101562 165.761719 266 169.121094 C 264.832031 170.054688 263.199219 171.734375 261.332031 172.292969 Z M 254.566406 154 C 254.566406 153.253906 257.132812 151.945312 259.234375 152.320312 C 262.035156 152.878906 261.566406 159.039062 260.632812 162.214844 C 259.464844 158.480469 254.566406 155.492188 254.566406 154 Z M 254.566406 154 "/>
<path style=" stroke:none;fill-rule:nonzero;fill:rgb(3.137255%,26.666667%,47.058824%);fill-opacity:1;" d="M 251.765625 166.507812 C 251.066406 168.558594 249.433594 170.988281 247.332031 173.039062 C 243.132812 176.960938 238 180.320312 239.398438 181.8125 C 241.035156 183.492188 244.066406 183.121094 246.167969 182.746094 C 251.300781 182.1875 255.734375 179.574219 259.933594 177.148438 C 260.867188 177.148438 261.800781 176.585938 263.667969 175.652344 C 265.066406 175.09375 265.765625 174.535156 266 173.414062 C 266.234375 172.667969 266.234375 171.546875 266 170.800781 C 265.066406 166.878906 262.265625 165.945312 261.566406 164.640625 L 258.535156 164.078125 Z M 251.765625 166.507812 "/>
<path style=" stroke:none;fill-rule:nonzero;fill:rgb(99.215686%,79.215686%,0.392157%);fill-opacity:1;" d="M 239.167969 181.441406 C 239.167969 181.625 239.167969 181.625 239.167969 181.441406 C 241.035156 183.308594 244.066406 182.933594 246.167969 182.558594 C 251.300781 182 255.734375 179.386719 259.933594 176.960938 C 260.867188 176.960938 261.800781 176.398438 263.667969 175.464844 C 265.066406 174.90625 265.765625 174.347656 266 173.226562 C 266.234375 172.480469 266.234375 171.359375 266 170.613281 C 265.765625 169.867188 265.535156 169.308594 265.300781 168.746094 C 265.300781 169.308594 265.300781 170.054688 265.066406 170.425781 C 264.601562 172.667969 259.933594 174.535156 257.832031 175.652344 C 254.101562 177.707031 249.898438 179.761719 245.464844 180.878906 C 243.601562 181.625 241.035156 182.1875 239.167969 181.441406 Z M 239.167969 181.441406 "/>
<path style=" stroke:none;fill-rule:nonzero;fill:rgb(77.647059%,87.058824%,94.901961%);fill-opacity:1;" d="M 255.035156 49.09375 C 262.964844 51.148438 267.632812 53.945312 265.765625 55.441406 C 263.667969 56.933594 255.734375 56.375 247.800781 54.320312 C 239.867188 52.265625 235.199219 49.464844 237.066406 47.972656 C 239.167969 46.667969 247.101562 47.039062 255.035156 49.09375 Z M 255.035156 49.09375 "/>
<path style=" stroke:none;fill-rule:nonzero;fill:rgb(21.176471%,35.294118%,47.058824%);fill-opacity:1;" d="M 235.667969 120.398438 L 255.964844 153.8125 C 255.964844 154 256.199219 154 256.433594 154 C 257.601562 154 259.699219 151.945312 261.332031 149.519531 C 262.5 147.652344 262.964844 145.972656 262.734375 145.414062 C 260.167969 138.132812 257.367188 129.734375 252 123.386719 C 250.132812 121.148438 249.433594 121.519531 247.566406 119.652344 C 243.132812 115.171875 235.199219 116.480469 235.667969 120.398438 Z M 235.667969 120.398438 "/>
<path style=" stroke:none;fill-rule:nonzero;fill:rgb(21.176471%,35.294118%,47.058824%);fill-opacity:1;" d="M 235.898438 119.28125 C 234.5 122.828125 243.832031 126.1875 248.5 121.519531 L 270.667969 90.71875 L 249.199219 77.839844 C 246.632812 84 245.699219 85.308594 243.601562 91.652344 C 240.566406 100.613281 237.765625 111.625 235.898438 119.28125 Z M 235.898438 119.28125 "/>
<path style=" stroke:none;fill-rule:nonzero;fill:rgb(25.098039%,41.568627%,54.901961%);fill-opacity:1;" d="M 258.535156 84.375 L 256.898438 84.375 L 255.734375 91.464844 C 251.765625 99.121094 252.234375 116.667969 252.464844 123.945312 L 252.464844 126.933594 C 252.234375 132.90625 263.667969 130.667969 265.066406 127.492188 C 267.398438 121.894531 268.101562 119.464844 270.199219 112.933594 C 273.699219 102.105469 281.867188 93.332031 267.867188 83.625 Z M 258.535156 84.375 "/>
<path style=" stroke:none;fill-rule:nonzero;fill:rgb(25.098039%,41.568627%,54.901961%);fill-opacity:1;" d="M 252.464844 127.121094 L 251.300781 169.492188 C 251.300781 169.679688 251.300781 169.867188 251.535156 169.867188 C 252.464844 170.238281 256.199219 169.867188 259 168.1875 C 261.101562 166.878906 261.800781 165.011719 261.800781 164.265625 C 263.898438 155.492188 266.699219 145.414062 266.234375 138.878906 C 266 132.71875 265.066406 129.359375 265.066406 126.746094 C 265.300781 120.960938 252.699219 115.921875 252.464844 127.121094 Z M 252.464844 127.121094 "/>
<path style=" stroke:none;fill-rule:nonzero;fill:rgb(0%,0%,0%);fill-opacity:1;" d="M 242.199219 21.839844 C 237.765625 22.398438 234.734375 23.332031 233.566406 25.199219 C 228.898438 33.414062 240.800781 50.214844 237.066406 56.933594 L 247.800781 54.507812 L 250.601562 31.546875 Z M 242.199219 21.839844 "/>
<path style=" stroke:none;fill-rule:nonzero;fill:rgb(94.117647%,75.686275%,49.019608%);fill-opacity:1;" d="M 250.367188 37.332031 C 250.601562 39.011719 249.667969 43.308594 253.167969 47.226562 L 246.867188 53.199219 L 242.433594 51.148438 C 242.433594 47.226562 241.964844 44.988281 240.332031 42 Z M 250.367188 37.332031 "/>
<path style=" stroke:none;fill-rule:nonzero;fill:rgb(2.745098%,71.764706%,76.862745%);fill-opacity:1;" d="M 252.699219 46.105469 C 255.265625 48.90625 257.832031 50.214844 261.566406 51.148438 C 268.566406 53.011719 266.699219 62.71875 265.300781 69.253906 C 264.601562 72.988281 265.066406 75.601562 265.535156 77.652344 C 266 79.148438 266.234375 80.265625 267.398438 81.386719 C 272.300781 86.054688 276.734375 92.027344 276.265625 96.507812 L 276.035156 96.507812 C 276.035156 96.691406 275.800781 96.878906 275.566406 97.066406 C 273.234375 98.746094 264.367188 98.1875 255.5 95.945312 C 247.332031 93.894531 242.199219 91.09375 243.132812 89.414062 C 243.601562 86.054688 243.601562 81.011719 243.132812 79.519531 C 242.667969 78.214844 239.867188 72.054688 237.535156 69.066406 C 234.734375 67.011719 233.332031 64.585938 232.867188 62.535156 C 232.398438 60.292969 235.433594 51.148438 236.832031 48.71875 C 237.535156 47.785156 240.101562 47.601562 241.964844 47.972656 C 241.964844 50.398438 250.367188 51.332031 252.699219 46.105469 Z M 252.699219 46.105469 "/>
<path style=" stroke:none;fill-rule:nonzero;fill:rgb(100%,85.882353%,65.490196%);fill-opacity:1;" d="M 234.964844 25.386719 C 231.933594 31.171875 234.734375 34.160156 235.199219 38.453125 C 235.433594 40.691406 236.601562 42.375 237.535156 43.492188 C 238.933594 45.171875 240.101562 45.921875 241.5 45.921875 C 244.066406 46.105469 253.867188 40.691406 253.867188 37.894531 L 254.101562 26.691406 Z M 234.964844 25.386719 "/>
<path style=" stroke:none;fill-rule:nonzero;fill:rgb(7.058824%,6.666667%,6.666667%);fill-opacity:1;" d="M 248.964844 44.425781 C 250.132812 49.28125 249.667969 56.375 248.5 58.613281 C 253.867188 57.121094 258.535156 53.011719 259.234375 47.414062 C 259.699219 43.492188 259 35.28125 258.066406 30.613281 C 256.667969 23.707031 250.601562 18.292969 239.867188 21.464844 C 237.535156 22.027344 234.035156 23.519531 233.800781 26.691406 C 232.867188 37.332031 249.433594 34.535156 248.964844 44.425781 Z M 248.964844 44.425781 "/>
<path style=" stroke:none;fill-rule:nonzero;fill:rgb(99.215686%,79.215686%,0.392157%);fill-opacity:1;" d="M 249.433594 164.265625 C 250.132812 163.707031 252.933594 164.265625 254.332031 165.761719 C 255.964844 167.8125 250.367188 171.921875 246.867188 173.601562 C 249.199219 170.238281 248.035156 165.386719 249.433594 164.265625 Z M 249.433594 164.265625 "/>
<path style=" stroke:none;fill-rule:nonzero;fill:rgb(79.607843%,74.509804%,80%);fill-opacity:1;" d="M 182.699219 64.214844 C 185.734375 67.011719 183.167969 87.359375 182.699219 91.652344 C 182 92.585938 179.433594 94.265625 175.464844 93.894531 C 174.535156 92.960938 174.535156 91.839844 174.535156 91.652344 C 173.832031 85.867188 174.765625 75.039062 174.535156 69.066406 Z M 182.699219 64.214844 "/>
<path style=" stroke:none;fill-rule:nonzero;fill:rgb(16.078431%,5.882353%,0.392157%);fill-opacity:1;" d="M 159.132812 50.027344 C 157.964844 54.320312 158.667969 58.425781 157.964844 61.226562 C 157.265625 64.960938 154.234375 66.828125 152.601562 68.878906 C 147.699219 75.226562 176.632812 63.464844 176.632812 63.28125 C 175 57.679688 169.398438 54.878906 164.035156 51.707031 C 164.5 51.894531 159.132812 50.214844 159.132812 50.027344 Z M 159.132812 50.027344 "/>
<path style=" stroke:none;fill-rule:nonzero;fill:rgb(94.117647%,75.686275%,49.019608%);fill-opacity:1;" d="M 168 94.640625 L 169.632812 94.640625 L 169.398438 106.773438 C 169.867188 113.679688 171.5 127.492188 171.734375 134.398438 C 171.964844 138.878906 170.566406 141.121094 170.566406 144.480469 C 171.035156 154 169.632812 163.148438 169.398438 172.851562 L 164.035156 176.960938 C 161.464844 162.214844 157.5 154.1875 157.964844 145.785156 C 158.667969 131.785156 157.964844 131.972656 156.101562 123.199219 C 153.300781 109.761719 155.167969 119.28125 155.867188 113.867188 C 156.332031 109.761719 157.265625 104.535156 161.464844 94.078125 Z M 168 94.640625 "/>
<path style=" stroke:none;fill-rule:nonzero;fill:rgb(100%,85.882353%,65.490196%);fill-opacity:1;" d="M 156.566406 101.734375 L 158.199219 101.734375 L 157.964844 113.867188 C 158.433594 120.773438 160.066406 134.585938 160.300781 141.492188 C 160.535156 145.972656 159.132812 148.214844 159.132812 151.574219 C 159.601562 161.09375 158.199219 170.238281 157.964844 179.945312 L 152.601562 184.054688 C 150.035156 169.308594 146.066406 161.28125 146.535156 152.878906 C 147.234375 138.878906 146.535156 139.066406 144.667969 130.292969 C 141.867188 116.851562 143.734375 126.375 144.433594 120.960938 C 144.898438 116.851562 145.832031 111.625 150.035156 101.171875 Z M 156.566406 101.734375 "/>
<path style=" stroke:none;fill-rule:nonzero;fill:rgb(100%,85.882353%,65.490196%);fill-opacity:1;" d="M 157.964844 175.839844 C 157.734375 178.453125 158.433594 179.945312 158.898438 180.878906 C 160.066406 183.121094 164.964844 185.921875 167.066406 187.601562 L 166.367188 189.839844 L 163.800781 189.839844 L 160.535156 189.652344 C 158.667969 188.535156 157.035156 187.039062 155.632812 186.105469 C 150.964844 183.121094 149.332031 182.746094 150.5 180.507812 C 150.964844 179.574219 151.667969 176.027344 150.5 171.734375 Z M 157.964844 175.839844 "/>
<path style=" stroke:none;fill-rule:nonzero;fill:rgb(1.960784%,20.392157%,36.862745%);fill-opacity:1;" d="M 165.433594 186.480469 C 165.898438 186.851562 166.367188 187.414062 166.367188 187.972656 C 166.367188 188.535156 165.667969 189.09375 164.035156 189.09375 C 161.933594 189.28125 158.667969 187.226562 156.566406 185.546875 C 154.234375 183.679688 152.132812 182 150.964844 179.945312 C 149.566406 181.253906 149.101562 182.746094 149.566406 184.800781 L 150.035156 187.039062 L 153.300781 188.347656 L 154.699219 187.972656 L 154.699219 187.226562 C 156.332031 188.160156 158.433594 190.398438 159.832031 190.960938 C 163.101562 192.453125 165.433594 192.265625 167.300781 192.265625 C 168.699219 192.265625 170.101562 191.519531 169.867188 190.398438 C 169.167969 188.535156 166.367188 187.039062 165.433594 186.480469 Z M 165.433594 186.480469 "/>
<path style=" stroke:none;fill-rule:nonzero;fill:rgb(94.117647%,75.686275%,49.019608%);fill-opacity:1;" d="M 169.398438 170.613281 C 169.167969 173.226562 169.867188 174.71875 170.332031 175.652344 C 171.5 177.894531 176.398438 180.691406 178.5 182.375 L 177.800781 184.613281 L 175.234375 184.613281 L 171.964844 184.425781 C 170.101562 183.308594 168.464844 181.8125 167.066406 180.878906 C 162.398438 177.894531 160.765625 177.519531 161.933594 175.28125 C 162.398438 174.347656 163.101562 170.800781 161.933594 166.507812 Z M 169.398438 170.613281 "/>
<path style=" stroke:none;fill-rule:nonzero;fill:rgb(1.568627%,15.686275%,27.843137%);fill-opacity:1;" d="M 176.867188 181.253906 C 177.332031 181.625 177.800781 182.1875 177.800781 182.746094 C 177.800781 183.308594 177.101562 183.867188 175.464844 183.867188 C 173.367188 184.054688 170.101562 182 168 180.320312 C 165.667969 178.453125 163.566406 176.773438 162.398438 174.71875 C 161 176.027344 160.535156 177.519531 161 179.574219 L 161.464844 181.8125 L 164.734375 183.121094 L 166.132812 182.746094 L 166.132812 182 C 167.765625 182.933594 169.867188 185.171875 171.265625 185.734375 C 174.535156 187.226562 176.867188 187.039062 178.734375 187.039062 C 180.132812 187.039062 181.535156 186.292969 181.300781 185.171875 C 180.601562 183.492188 178.035156 181.8125 176.867188 181.253906 Z M 176.867188 181.253906 "/>
<path style=" stroke:none;fill-rule:nonzero;fill:rgb(27.843137%,19.215686%,28.235294%);fill-opacity:1;" d="M 140 111.441406 C 140 119.09375 143.5 128.238281 144.898438 140 C 144.898438 140.933594 145.601562 141.679688 146.765625 142.425781 C 150.5 144.292969 159.132812 143.171875 165.667969 140.1875 C 170.332031 137.945312 172.898438 135.332031 172.433594 133.464844 C 175 106.027344 174.300781 102.851562 171.964844 97.066406 C 170.800781 93.894531 168.234375 90.535156 168.234375 89.039062 C 160.300781 95.761719 151.898438 89.785156 146.066406 93.707031 C 144.199219 100.613281 140 101.359375 140 111.441406 Z M 140 111.441406 "/>
<path style=" stroke:none;fill-rule:nonzero;fill:rgb(88.627451%,84.313725%,89.019608%);fill-opacity:1;" d="M 157.734375 65.707031 C 153.535156 67.574219 150.035156 70.1875 149.101562 74.292969 C 148.398438 78.214844 147.699219 84.1875 147.699219 90.347656 C 147.699219 110.878906 175.933594 86.613281 175.933594 86.613281 C 178.035156 85.492188 181.300781 85.121094 183.167969 82.320312 C 185.734375 78.214844 184.332031 72.238281 183.632812 66.453125 C 183.632812 65.148438 182.933594 64.027344 181.300781 63.28125 C 176.632812 61.039062 166.132812 61.785156 157.734375 65.707031 Z M 157.734375 65.707031 "/>
<path style=" stroke:none;fill-rule:nonzero;fill:rgb(27.843137%,19.215686%,28.235294%);fill-opacity:1;" d="M 183.867188 66.265625 C 184.566406 72.054688 185.964844 78.027344 183.398438 82.132812 C 181.535156 84.933594 178.5 85.492188 176.167969 86.425781 C 174.066406 87.546875 171.734375 90.535156 169.632812 98 L 144.433594 106.960938 C 140.699219 100.613281 146.300781 96.507812 147.933594 90.160156 C 147.933594 89.785156 148.167969 89.226562 148.167969 88.851562 C 151.667969 89.972656 155.867188 88.292969 157.265625 84.375 C 160.765625 74.667969 159.367188 68.507812 154.234375 67.386719 C 156.332031 66.078125 157.964844 65.148438 160.765625 64.214844 C 166.832031 68.691406 172.433594 75.414062 174.066406 81.945312 C 178.964844 75.414062 179.433594 68.507812 177.800781 61.972656 C 179.199219 62.160156 180.601562 62.535156 181.765625 63.09375 C 183.167969 64.027344 183.867188 65.148438 183.867188 66.265625 Z M 183.867188 66.265625 "/>
<path style=" stroke:none;fill-rule:nonzero;fill:rgb(94.117647%,75.686275%,49.019608%);fill-opacity:1;" d="M 164.734375 57.121094 C 164.5 58.988281 164.5 63.09375 164.035156 64.398438 C 163.800781 68.691406 171.265625 71.121094 174.765625 67.945312 L 176.167969 61.414062 Z M 164.734375 57.121094 "/>
<path style=" stroke:none;fill-rule:nonzero;fill:rgb(16.078431%,5.882353%,0.392157%);fill-opacity:1;" d="M 177.101562 44.613281 C 186.199219 47.785156 182.699219 61.785156 175.933594 64.214844 L 167.300781 61.601562 L 165.898438 54.878906 L 170.566406 47.972656 Z M 177.101562 44.613281 "/>
<path style=" stroke:none;fill-rule:nonzero;fill:rgb(100%,85.882353%,65.490196%);fill-opacity:1;" d="M 181.066406 52.453125 C 181.535156 54.132812 181.535156 56.933594 180.367188 60.105469 C 179.667969 61.972656 178.964844 62.90625 178.265625 63.839844 C 177.566406 64.773438 176.167969 66.078125 175 66.078125 C 172.667969 66.265625 167.765625 63.464844 166.832031 62.90625 C 165.433594 62.160156 164.734375 61.414062 164.734375 60.292969 L 164.734375 59.359375 C 163.800781 58.988281 163.101562 58.988281 162.167969 58.054688 C 161.464844 57.121094 160.535156 56.375 160.300781 54.320312 C 159.601562 48.90625 163.332031 46.480469 167.300781 45.546875 C 172.667969 44.613281 178.964844 46.667969 181.066406 52.453125 Z M 181.066406 52.453125 "/>
<path style=" stroke:none;fill-rule:nonzero;fill:rgb(16.078431%,5.882353%,0.392157%);fill-opacity:1;" d="M 165.433594 59.546875 C 164.964844 58.800781 164.734375 57.679688 164.5 56.746094 C 164.265625 55.625 163.800781 54.691406 161.933594 54.691406 C 161 54.691406 160.300781 55.8125 161.464844 57.867188 C 156.101562 53.574219 159.367188 44.988281 166.832031 43.679688 C 173.832031 42.375 182.234375 45.171875 178.265625 50.773438 C 176.398438 53.574219 171.964844 54.507812 167.535156 56.1875 C 166.832031 56.1875 165.433594 58.425781 165.433594 59.546875 Z M 165.433594 59.546875 "/>
<path style=" stroke:none;fill-rule:nonzero;fill:rgb(0%,0%,0%);fill-opacity:1;" d="M 176.398438 56.375 C 177.101562 56.1875 178.035156 56 178.734375 55.8125 L 179.199219 55.8125 C 179.667969 55.8125 179.898438 55.625 180.367188 55.625 L 181.300781 55.625 C 182 55.8125 181.765625 56.375 181.535156 56.746094 L 181.535156 56.933594 C 181.535156 57.308594 181.300781 57.867188 181.066406 58.054688 C 180.832031 58.425781 180.601562 58.800781 180.132812 58.800781 C 179.898438 58.988281 179.433594 58.988281 179.199219 59.171875 C 178.964844 59.171875 178.5 59.359375 178.265625 59.359375 C 177.332031 59.546875 176.632812 59.359375 176.167969 58.988281 C 175.699219 58.613281 175.464844 58.238281 175.464844 57.867188 L 175.464844 57.121094 C 175.699219 56.746094 175.933594 56.558594 176.398438 56.375 Z M 178.964844 56.1875 C 178.265625 56.375 177.332031 56.558594 176.867188 56.746094 C 176.632812 56.933594 176.398438 57.121094 176.167969 57.121094 L 176.167969 57.679688 C 176.167969 58.054688 176.398438 58.238281 176.632812 58.613281 C 176.867188 58.800781 177.566406 58.988281 178.265625 58.800781 C 178.5 58.800781 178.734375 58.800781 179.199219 58.613281 C 179.433594 58.613281 179.667969 58.425781 179.898438 58.425781 C 180.132812 58.238281 180.367188 58.054688 180.601562 57.679688 C 180.832031 57.308594 181.066406 56.933594 181.066406 56.558594 L 181.066406 56.375 C 181.066406 56 181.300781 55.625 181.066406 55.625 L 180.367188 55.625 C 180.132812 55.625 179.667969 55.8125 179.433594 55.8125 Z M 172.898438 57.121094 C 172.199219 57.121094 170.101562 57.121094 169.167969 57.308594 C 168.933594 57.308594 168.699219 57.492188 168.464844 57.492188 C 168.234375 57.679688 168.464844 58.054688 168.699219 58.425781 C 168.933594 58.800781 169.398438 59.171875 169.398438 59.171875 C 170.101562 59.546875 170.566406 59.546875 171.265625 59.546875 C 172.199219 59.546875 173.367188 59.359375 173.601562 58.800781 C 173.832031 58.425781 173.832031 58.054688 173.832031 57.679688 C 173.832031 57.492188 173.601562 57.308594 173.601562 57.121094 Z M 172.898438 56.558594 C 173.367188 56.558594 173.832031 56.746094 174.066406 56.933594 C 174.300781 57.121094 174.535156 57.308594 174.535156 57.679688 C 174.535156 58.054688 174.535156 58.613281 174.300781 58.988281 C 173.832031 59.734375 172.433594 59.921875 171.5 59.921875 C 170.566406 59.921875 169.867188 59.921875 169.167969 59.359375 C 168.933594 59.171875 168.464844 58.800781 168.234375 58.425781 C 167.765625 57.867188 167.535156 57.308594 168 56.933594 C 168.234375 56.746094 168.464844 56.746094 168.933594 56.558594 C 170.101562 56.746094 172.199219 56.558594 172.898438 56.558594 Z M 172.898438 56.558594 "/>
<path style=" stroke:none;fill-rule:nonzero;fill:rgb(0%,0%,0%);fill-opacity:1;" d="M 174.300781 57.308594 L 175.699219 57.121094 L 175.699219 57.679688 L 174.300781 57.867188 Z M 168.234375 57.679688 L 166.601562 56.933594 L 166.132812 57.492188 L 168 58.238281 Z M 168.234375 57.679688 "/>
<path style=" stroke:none;fill-rule:nonzero;fill:rgb(61.568627%,68.627451%,69.019608%);fill-opacity:1;" d="M 153.066406 128.425781 C 153.066406 132.535156 145.132812 134.585938 144.433594 132.535156 C 137.199219 127.679688 129.964844 122.640625 122.734375 117.601562 L 127.867188 107.332031 C 139.066406 110.878906 146.300781 120.773438 153.066406 128.425781 Z M 153.066406 128.425781 "/>
<path style=" stroke:none;fill-rule:nonzero;fill:rgb(28.235294%,27.058824%,24.313725%);fill-opacity:1;" d="M 150.734375 205.707031 C 151.667969 208.878906 160.765625 214.667969 162.632812 216.160156 C 163.800781 217.09375 163.101562 219.707031 161.464844 220.453125 C 159.601562 221.386719 156.566406 221.386719 154.234375 221.011719 C 151.433594 220.640625 148.167969 218.398438 144.433594 216.535156 C 140.699219 214.667969 136.265625 213.359375 136.265625 211.679688 C 136.5 209.441406 137.199219 207.574219 137.898438 204.398438 L 143.265625 205.519531 Z M 150.734375 205.707031 "/>
<path style=" stroke:none;fill-rule:nonzero;fill:rgb(12.156863%,26.27451%,31.764706%);fill-opacity:1;" d="M 94.5 201.972656 L 94.5 202.347656 C 94.5 202.347656 94.5 202.535156 94.734375 202.535156 L 94.964844 202.71875 L 95.199219 202.71875 L 113.398438 211.121094 L 113.398438 213.359375 L 95.199219 204.960938 L 94.964844 204.773438 L 94.734375 204.585938 L 94.734375 204.214844 Z M 94.5 201.972656 "/>
<path style=" stroke:none;fill-rule:nonzero;fill:rgb(16.078431%,30.980392%,36.862745%);fill-opacity:1;" d="M 114.101562 211.308594 C 114.101562 211.308594 114.101562 211.492188 114.101562 211.308594 C 114.566406 211.308594 114.800781 211.492188 115.035156 211.492188 L 115.964844 211.492188 C 116.199219 211.492188 116.433594 211.308594 116.667969 211.308594 L 137.667969 201.601562 C 138.132812 201.414062 138.367188 201.039062 138.367188 200.851562 L 138.367188 203.09375 C 138.367188 203.28125 138.132812 203.652344 137.667969 203.839844 L 116.667969 213.546875 C 116.667969 213.546875 116.433594 213.546875 116.433594 213.734375 L 114.101562 213.734375 C 113.867188 213.734375 113.867188 213.546875 113.632812 213.546875 L 113.632812 211.308594 Z M 114.101562 211.308594 "/>
<path style=" stroke:none;fill-rule:nonzero;fill:rgb(21.568627%,38.823529%,45.882353%);fill-opacity:1;" d="M 95.199219 201.226562 C 94.265625 201.601562 94.265625 202.347656 95.199219 202.71875 L 113.398438 211.121094 C 114.332031 211.492188 115.734375 211.492188 116.667969 211.121094 L 137.667969 201.414062 C 138.601562 201.039062 138.601562 200.292969 137.667969 199.921875 L 119.464844 191.519531 C 118.535156 191.148438 117.132812 191.148438 116.199219 191.519531 Z M 95.199219 201.226562 "/>
<path style=" stroke:none;fill-rule:nonzero;fill:rgb(1.568627%,11.372549%,20%);fill-opacity:1;" d="M 116.433594 162.214844 L 115.734375 173.601562 L 116.433594 203.652344 L 120.167969 201.972656 L 120.167969 160.535156 Z M 116.433594 162.214844 "/>
<path style=" stroke:none;fill-rule:nonzero;fill:rgb(3.137255%,20.784314%,36.078431%);fill-opacity:1;" d="M 116.433594 162.214844 L 112.699219 160.535156 L 112.699219 201.972656 L 116.433594 203.652344 Z M 116.433594 162.214844 "/>
<path style=" stroke:none;fill-rule:nonzero;fill:rgb(21.176471%,48.627451%,51.372549%);fill-opacity:1;" d="M 131.832031 175.839844 L 134.632812 174.535156 L 134.632812 172.667969 L 131.832031 174.160156 Z M 131.832031 175.839844 "/>
<path style=" stroke:none;fill-rule:nonzero;fill:rgb(1.568627%,11.372549%,20%);fill-opacity:1;" d="M 97.535156 154 L 97.535156 153.066406 L 100.566406 151.761719 L 100.566406 152.878906 C 100.566406 153.253906 100.800781 153.441406 100.800781 153.8125 C 101.035156 154.1875 101.035156 154.558594 101.265625 154.933594 L 101.964844 156.054688 C 102.199219 156.425781 102.433594 156.613281 102.667969 156.988281 C 102.898438 157.171875 103.132812 157.546875 103.367188 157.734375 L 103.601562 157.921875 L 104.300781 158.480469 L 104.535156 158.667969 C 104.765625 158.851562 105.234375 159.039062 105.464844 159.226562 L 102.433594 160.535156 C 101.964844 160.347656 101.734375 160.160156 101.5 159.972656 L 101.265625 159.785156 L 100.800781 159.414062 L 100.332031 159.039062 L 100.101562 158.851562 C 99.867188 158.667969 99.867188 158.480469 99.632812 158.480469 C 99.632812 158.480469 99.632812 158.292969 99.398438 158.292969 C 99.398438 158.292969 99.398438 158.105469 99.167969 158.105469 C 99.167969 157.921875 98.933594 157.921875 98.933594 157.734375 C 98.933594 157.546875 98.699219 157.546875 98.699219 157.359375 C 98.699219 157.171875 98.464844 157.171875 98.464844 156.988281 C 98.464844 156.800781 98.234375 156.800781 98.234375 156.613281 C 98.234375 156.425781 98 156.425781 98 156.238281 C 98 156.054688 97.765625 156.054688 97.765625 155.867188 C 97.765625 155.679688 97.535156 155.679688 97.535156 155.492188 L 97.535156 155.121094 C 97.535156 154.933594 97.535156 154.746094 97.300781 154.558594 L 97.300781 154.1875 C 97.535156 154.375 97.535156 154.1875 97.535156 154 C 97.535156 154.1875 97.535156 154.1875 97.535156 154 Z M 97.535156 154 "/>
<path style=" stroke:none;fill-rule:nonzero;fill:rgb(1.568627%,11.372549%,20%);fill-opacity:1;" d="M 97.535156 153.253906 L 100.566406 151.761719 L 100.566406 126.933594 L 97.535156 128.425781 Z M 97.535156 153.253906 "/>
<path style=" stroke:none;fill-rule:nonzero;fill:rgb(27.45098%,66.666667%,70.588235%);fill-opacity:1;" d="M 97.535156 128.425781 L 100.566406 126.933594 L 98.464844 126 L 95.667969 127.492188 Z M 105.933594 159.414062 L 134.632812 172.667969 L 131.832031 174.160156 L 103.132812 160.90625 Z M 105.933594 159.414062 "/>
<path style=" stroke:none;fill-rule:nonzero;fill:rgb(3.137255%,20.784314%,36.078431%);fill-opacity:1;" d="M 95.667969 127.492188 L 97.765625 128.425781 L 97.765625 153.253906 C 97.765625 156.054688 100.332031 159.414062 103.367188 160.90625 L 132.066406 174.160156 L 132.066406 176.027344 L 103.367188 162.773438 C 99.167969 160.90625 95.898438 156.238281 95.898438 152.320312 Z M 95.667969 127.492188 "/>
<path style=" stroke:none;fill-rule:nonzero;fill:rgb(12.156863%,26.27451%,31.764706%);fill-opacity:1;" d="M 85.167969 164.078125 L 85.167969 164.453125 C 85.167969 164.453125 85.167969 164.640625 85.398438 164.640625 L 85.632812 164.828125 L 85.867188 165.011719 C 85.867188 165.011719 86.101562 165.011719 86.101562 165.199219 L 113.867188 178.078125 L 113.867188 181.625 L 86.101562 168.746094 C 86.101562 168.746094 85.867188 168.746094 85.867188 168.558594 L 85.632812 168.375 L 85.398438 168.1875 L 85.398438 167.625 Z M 85.167969 164.078125 "/>
<path style=" stroke:none;fill-rule:nonzero;fill:rgb(16.078431%,30.980392%,36.862745%);fill-opacity:1;" d="M 115.035156 178.453125 C 115.265625 178.640625 115.265625 178.640625 115.035156 178.453125 C 115.5 178.640625 115.964844 178.640625 116.433594 178.640625 C 116.898438 178.640625 117.367188 178.640625 117.832031 178.453125 C 118.300781 178.453125 118.535156 178.265625 119 178.078125 L 151.199219 163.148438 C 151.898438 162.773438 152.132812 162.398438 152.132812 162.027344 L 152.132812 165.574219 C 152.132812 165.945312 151.898438 166.507812 151.199219 166.691406 L 119 181.625 C 118.765625 181.625 118.765625 181.8125 118.535156 181.8125 C 118.300781 181.8125 118.300781 181.8125 118.066406 182 L 114.800781 182 C 114.566406 182 114.332031 181.8125 114.101562 181.8125 L 114.101562 178.265625 C 114.332031 178.265625 114.800781 178.453125 115.035156 178.453125 Z M 115.035156 178.453125 "/>
<path style=" stroke:none;fill-rule:nonzero;fill:rgb(21.568627%,38.823529%,45.882353%);fill-opacity:1;" d="M 86.332031 162.960938 C 84.933594 163.519531 84.933594 164.640625 86.332031 165.199219 L 114.101562 178.078125 C 115.5 178.640625 117.601562 178.640625 119 178.078125 L 151.199219 163.148438 C 152.601562 162.585938 152.601562 161.464844 151.199219 160.90625 L 123.433594 148.027344 C 122.035156 147.464844 119.699219 147.464844 118.535156 148.027344 Z M 86.332031 162.960938 "/>
<path style=" stroke:none;fill-rule:nonzero;fill:rgb(12.156863%,26.27451%,31.764706%);fill-opacity:1;" d="M 79.566406 133.839844 L 79.566406 152.320312 C 79.566406 152.507812 79.566406 152.507812 79.800781 152.691406 C 79.800781 152.691406 79.800781 152.878906 80.035156 152.878906 C 80.035156 153.066406 80.265625 153.066406 80.5 153.253906 L 76.535156 151.386719 C 76.300781 151.386719 76.300781 151.199219 76.066406 151.011719 L 76.066406 131.414062 Z M 79.566406 133.839844 "/>
<path style=" stroke:none;fill-rule:nonzero;fill:rgb(21.568627%,38.823529%,45.882353%);fill-opacity:1;" d="M 80.964844 131.039062 L 80.5 131.414062 C 80.265625 131.601562 80.265625 131.785156 80.035156 131.785156 C 80.035156 131.972656 79.800781 132.160156 79.800781 132.160156 C 79.800781 132.347656 79.566406 132.535156 79.566406 132.71875 C 79.566406 132.90625 79.566406 133.09375 79.332031 133.28125 L 79.332031 133.839844 L 75.367188 131.972656 L 75.367188 128.988281 L 75.601562 128.800781 C 75.601562 128.800781 75.601562 128.613281 75.832031 128.613281 L 75.832031 128.238281 L 108.035156 113.308594 L 109.199219 113.308594 L 113.167969 115.171875 C 113.167969 115.171875 112.933594 115.171875 112.699219 114.988281 L 111.765625 114.988281 C 111.535156 114.988281 111.535156 115.171875 111.300781 115.171875 L 79.101562 130.105469 C 78.867188 130.105469 78.867188 130.292969 78.632812 130.292969 C 81.433594 130.851562 81.199219 131.039062 80.964844 131.039062 Z M 80.964844 131.039062 "/>
<path style=" stroke:none;fill-rule:nonzero;fill:rgb(16.078431%,30.980392%,36.862745%);fill-opacity:1;" d="M 82.132812 130.480469 L 114.332031 115.546875 C 115.734375 114.988281 116.898438 115.359375 116.898438 116.667969 L 116.898438 134.773438 C 116.898438 136.078125 115.734375 137.574219 114.332031 138.320312 L 82.132812 153.253906 C 80.734375 153.8125 79.566406 153.441406 79.566406 152.132812 L 79.566406 134.027344 C 79.566406 132.71875 80.734375 131.039062 82.132812 130.480469 Z M 82.132812 130.480469 "/>
<path style=" stroke:none;fill-rule:nonzero;fill:rgb(0.784314%,10.196078%,18.823529%);fill-opacity:1;" d="M 136.035156 167.253906 L 133.933594 176.773438 L 134.867188 207.945312 C 136.5 212.238281 149.566406 212.988281 151.433594 205.148438 C 151.898438 191.148438 151.898438 176.773438 151.898438 163.894531 C 148.867188 159.785156 136.734375 153.066406 134.167969 152.691406 Z M 136.035156 167.253906 "/>
<path style=" stroke:none;fill-rule:nonzero;fill:rgb(0.784314%,10.196078%,18.823529%);fill-opacity:1;" d="M 121.800781 145.785156 C 130.433594 148.585938 145.601562 155.867188 150.734375 159.972656 C 151.667969 160.71875 151.667969 161.652344 151.898438 162.398438 C 153.066406 168.933594 145.367188 170.988281 141.167969 169.867188 C 129.5 167.066406 120.867188 160.347656 110.132812 153.625 Z M 121.800781 145.785156 "/>
<path style=" stroke:none;fill-rule:nonzero;fill:rgb(1.176471%,15.294118%,27.843137%);fill-opacity:1;" d="M 108.964844 151.386719 C 117.601562 154.1875 134.867188 163.332031 139.300781 168.746094 C 140 169.492188 140.234375 170.425781 140.464844 171.171875 C 141.632812 177.707031 133.699219 180.691406 129.734375 179.574219 C 121.332031 177.519531 109.433594 172.667969 100.800781 168 C 97.300781 165.945312 86.566406 164.640625 90.066406 148.027344 Z M 108.964844 151.386719 "/>
<path style=" stroke:none;fill-rule:nonzero;fill:rgb(38.039216%,36.470588%,32.941176%);fill-opacity:1;" d="M 138.132812 212.613281 C 139.066406 215.785156 148.167969 221.574219 150.035156 223.066406 C 151.199219 224 150.5 226.613281 148.867188 227.359375 C 147 228.292969 143.964844 228.292969 141.632812 227.921875 C 138.832031 227.546875 135.566406 225.308594 131.832031 223.441406 C 128.101562 221.574219 123.667969 220.265625 123.667969 218.585938 C 123.898438 216.347656 124.601562 214.480469 125.300781 211.308594 L 130.667969 212.425781 Z M 138.132812 212.613281 "/>
<path style=" stroke:none;fill-rule:nonzero;fill:rgb(1.176471%,15.294118%,27.843137%);fill-opacity:1;" d="M 124.601562 173.601562 L 122.5 183.121094 L 123.667969 211.121094 C 123.667969 215.226562 140 218.214844 140 211.679688 C 140.464844 198.054688 140.699219 184.613281 140.699219 171.734375 C 137.667969 167.625 125.535156 159.414062 122.964844 159.226562 Z M 124.601562 173.601562 "/>
<path style=" stroke:none;fill-rule:nonzero;fill:rgb(68.627451%,77.647059%,78.039216%);fill-opacity:1;" d="M 96.367188 113.492188 C 101.964844 106.027344 118.066406 104.347656 123.433594 104.90625 C 126.933594 105.28125 131.601562 106.585938 133.234375 109.199219 C 139.300781 118.71875 122.265625 134.585938 120.398438 140.375 C 119.933594 141.679688 120.867188 142.800781 121.800781 144.292969 C 115.964844 158.105469 89.132812 154.1875 89.832031 148.398438 C 90.066406 145.601562 92.398438 139.8125 94.035156 133.652344 C 96.367188 124.507812 92.867188 118.160156 96.367188 113.492188 Z M 96.367188 113.492188 "/>
<path style=" stroke:none;fill-rule:nonzero;fill:rgb(50.980392%,53.72549%,58.039216%);fill-opacity:1;" d="M 221.433594 97.441406 L 221.667969 148.773438 L 228.667969 152.132812 L 228.433594 97.441406 Z M 221.433594 97.441406 "/>
<path style=" stroke:none;fill-rule:nonzero;fill:rgb(59.607843%,62.745098%,67.843137%);fill-opacity:1;" d="M 228.433594 97.441406 L 228.667969 152.132812 L 235.433594 148.960938 L 235.199219 97.441406 Z M 228.433594 97.441406 "/>
<path style=" stroke:none;fill-rule:nonzero;fill:rgb(50.980392%,53.72549%,58.039216%);fill-opacity:1;" d="M 55.765625 173.972656 L 56 225.308594 L 63 228.667969 L 62.765625 173.972656 Z M 55.765625 173.972656 "/>
<path style=" stroke:none;fill-rule:nonzero;fill:rgb(59.607843%,62.745098%,67.843137%);fill-opacity:1;" d="M 62.765625 173.972656 L 63 228.667969 L 69.765625 225.492188 L 69.535156 173.972656 Z M 62.765625 173.972656 "/>
<path style=" stroke:none;fill-rule:nonzero;fill:rgb(50.980392%,53.72549%,58.039216%);fill-opacity:1;" d="M 289.800781 135.148438 L 289.800781 179.761719 L 296.800781 182.933594 L 296.566406 135.148438 Z M 289.800781 135.148438 "/>
<path style=" stroke:none;fill-rule:nonzero;fill:rgb(59.607843%,62.745098%,67.843137%);fill-opacity:1;" d="M 296.566406 135.148438 L 296.800781 182.933594 L 303.566406 179.761719 L 303.566406 135.148438 Z M 296.566406 135.148438 "/>
<path style=" stroke:none;fill-rule:nonzero;fill:rgb(50.980392%,53.72549%,58.039216%);fill-opacity:1;" d="M 130.898438 190.398438 L 123.898438 187.039062 L 124.132812 256.292969 L 131.132812 259.464844 Z M 130.898438 190.398438 "/>
<path style=" stroke:none;fill-rule:nonzero;fill:rgb(59.607843%,62.745098%,67.843137%);fill-opacity:1;" d="M 130.898438 190.398438 L 131.132812 259.464844 L 137.898438 256.292969 L 137.667969 187.226562 Z M 130.898438 190.398438 "/>
<path style=" stroke:none;fill-rule:nonzero;fill:rgb(72.941176%,76.078431%,81.960784%);fill-opacity:1;" d="M 33.132812 174.71875 L 33.132812 183.867188 C 73.964844 202.90625 87.035156 208.691406 127.867188 227.734375 L 127.867188 218.585938 C 87.035156 199.546875 73.964844 193.574219 33.132812 174.71875 Z M 33.132812 174.71875 "/>
<path style=" stroke:none;fill-rule:nonzero;fill:rgb(83.137255%,86.666667%,92.54902%);fill-opacity:1;" d="M 231 83.625 L 32.898438 174.71875 C 73.734375 193.761719 86.800781 199.546875 127.632812 218.585938 L 325.734375 127.492188 C 284.898438 108.453125 271.832031 102.667969 231 83.625 Z M 231 83.625 "/>
<path style=" stroke:none;fill-rule:nonzero;fill:rgb(78.431373%,81.960784%,87.843137%);fill-opacity:1;" d="M 127.867188 218.585938 L 127.867188 227.734375 L 325.964844 136.640625 L 325.964844 127.492188 Z M 127.867188 218.585938 "/>
<path style=" stroke:none;fill-rule:nonzero;fill:rgb(94.117647%,75.686275%,49.019608%);fill-opacity:1;" d="M 123.199219 100.988281 C 121.332031 104.535156 119 105.464844 116.898438 108.640625 C 115.734375 111.8125 121.332031 116.851562 125.765625 115.359375 C 127.867188 113.308594 130.667969 111.441406 132.535156 109.761719 Z M 123.199219 100.988281 "/>
<path style=" stroke:none;fill-rule:nonzero;fill:rgb(100%,85.882353%,65.490196%);fill-opacity:1;" d="M 140 98.933594 C 140.464844 102.292969 141.167969 101.171875 139.765625 106.585938 C 139.300781 108.265625 135.800781 112.375 135.332031 112.746094 C 134.632812 113.308594 132.765625 113.679688 131.832031 113.679688 C 129.964844 113.679688 125.066406 110.691406 123.898438 109.761719 C 121.101562 107.519531 119.933594 107.148438 119.933594 104.347656 L 119.234375 101.359375 L 118.765625 92.585938 C 125.066406 90.347656 130.433594 88.480469 133.699219 89.039062 C 136.964844 89.785156 139.066406 92.585938 140 98.933594 Z M 140 98.933594 "/>
<path style=" stroke:none;fill-rule:nonzero;fill:rgb(38.823529%,14.117647%,1.568627%);fill-opacity:1;" d="M 119.464844 89.226562 C 110.601562 92.214844 116.898438 102.292969 119.234375 105.28125 C 119.699219 104.90625 120.632812 105.09375 120.632812 104.535156 C 120.398438 103.039062 121.101562 101.734375 122.265625 101.546875 C 123.433594 101.171875 124.601562 102.292969 125.066406 104.90625 C 126 103.785156 127.167969 102.292969 128.101562 100.054688 C 128.332031 100.054688 141.398438 100.054688 142.800781 93.894531 C 140.699219 93.148438 137.199219 87.171875 132.765625 86.425781 C 127.632812 85.679688 121.800781 86.988281 119.464844 89.226562 Z M 119.464844 89.226562 "/>
<path style=" stroke:none;fill-rule:nonzero;fill:rgb(38.823529%,38.431373%,38.431373%);fill-opacity:1;" d="M 144.199219 156.613281 L 122.734375 150.828125 L 122.734375 151.945312 L 143.5 161.652344 Z M 144.199219 156.613281 "/>
<path style=" stroke:none;fill-rule:nonzero;fill:rgb(47.058824%,47.058824%,47.058824%);fill-opacity:1;" d="M 122.734375 150.828125 L 143.734375 156.988281 C 158.199219 150.265625 172.667969 143.546875 187.367188 136.828125 L 166.367188 130.667969 Z M 122.734375 150.828125 "/>
<path style=" stroke:none;fill-rule:nonzero;fill:rgb(28.235294%,30.196078%,29.411765%);fill-opacity:1;" d="M 187.132812 141.492188 L 187.132812 136.828125 C 172.667969 143.546875 158.199219 150.265625 143.5 156.988281 L 143.5 161.652344 C 157.964844 154.933594 172.667969 148.214844 187.132812 141.492188 Z M 187.132812 141.492188 "/>
<path style=" stroke:none;fill-rule:nonzero;fill:rgb(100%,85.882353%,65.490196%);fill-opacity:1;" d="M 116.667969 146.71875 C 117.601562 146.90625 118.300781 146.90625 120.398438 146.535156 C 122.265625 146.160156 124.832031 145.226562 125.535156 145.414062 L 132.300781 145.972656 C 134.398438 146.347656 135.101562 147.09375 134.632812 147.464844 C 134.167969 148.027344 132.300781 148.027344 130.433594 148.027344 C 134.167969 149.894531 135.101562 150.453125 137.433594 152.691406 C 139.300781 154.375 134.867188 155.867188 133.933594 155.867188 C 129.734375 155.867188 126.933594 153.253906 122.734375 153.253906 C 118.066406 153.066406 116.667969 152.320312 112.464844 150.828125 Z M 116.667969 146.71875 "/>
<path style=" stroke:none;fill-rule:nonzero;fill:rgb(75.686275%,84.705882%,85.098039%);fill-opacity:1;" d="M 107.800781 118.71875 C 106.167969 127.121094 96.132812 139.8125 91.464844 146.535156 L 83.300781 145.601562 C 83.535156 145.226562 82.367188 143.921875 82.367188 143.546875 C 85.632812 134.960938 89.832031 122.078125 94.964844 114.988281 C 97.066406 112 100.800781 110.320312 103.601562 111.253906 C 107.800781 112.558594 108.5 115.734375 107.800781 118.71875 Z M 107.800781 118.71875 "/>
<path style=" stroke:none;fill-rule:nonzero;fill:rgb(75.686275%,84.705882%,85.098039%);fill-opacity:1;" d="M 90.066406 138.878906 C 99.398438 140.1875 110.601562 143.921875 119.933594 145.972656 C 120.867188 147.28125 118.535156 152.320312 117.132812 153.253906 C 107.800781 151.761719 97.765625 150.640625 88.433594 148.773438 C 83.300781 147.839844 82.132812 145.972656 82.132812 143.921875 C 82.601562 141.492188 85.167969 138.132812 90.066406 138.878906 Z M 90.066406 138.878906 "/>
<path style=" stroke:none;fill-rule:nonzero;fill:rgb(94.117647%,75.686275%,49.019608%);fill-opacity:1;" d="M 189.234375 107.519531 C 190.867188 110.878906 192.5 110.878906 194.132812 112.746094 C 194.832031 113.492188 196.464844 116.667969 196.699219 117.972656 C 196.933594 119.28125 196.699219 120.960938 195.066406 121.148438 C 193.667969 120.214844 192.265625 118.71875 191.566406 117.601562 C 190.167969 116.667969 189 115.734375 187.132812 114.800781 C 187.132812 115.734375 187.832031 117.785156 187.601562 118.535156 C 187.367188 119.28125 185.5 119.28125 185.265625 118.347656 C 185.035156 117.785156 185.265625 117.039062 185.035156 115.921875 C 185.035156 115.734375 184.332031 113.867188 184.332031 113.867188 C 183.632812 112.558594 183.398438 112.1875 184.101562 111.253906 L 184.800781 108.640625 Z M 189.234375 107.519531 "/>
<path style=" stroke:none;fill-rule:nonzero;fill:rgb(79.607843%,74.509804%,80%);fill-opacity:1;" d="M 182.464844 90.90625 C 185.265625 95.386719 188.300781 104.90625 189.699219 108.265625 C 189.699219 109.945312 184.566406 109.945312 184.101562 109.011719 C 182.234375 106.398438 176.867188 97.8125 174.765625 92.960938 C 176.867188 91.464844 180.132812 90.347656 182.464844 90.90625 Z M 182.464844 90.90625 "/>
<path style=" stroke:none;fill-rule:nonzero;fill:rgb(100%,85.882353%,65.490196%);fill-opacity:1;" d="M 192.5 100.613281 C 200.667969 104.347656 196 100.988281 204.632812 102.851562 C 206.964844 103.414062 208.132812 106.773438 211.398438 109.945312 C 212.332031 110.878906 212.566406 111.8125 211.867188 112.375 C 210.464844 113.679688 207.898438 111.8125 205.800781 110.691406 C 203 109.199219 200.667969 109.386719 198.101562 108.828125 C 196.464844 108.453125 195.765625 107.894531 194.132812 106.960938 L 189.699219 104.535156 C 190.398438 102.851562 191.332031 102.105469 192.5 100.613281 Z M 192.5 100.613281 "/>
<path style=" stroke:none;fill-rule:nonzero;fill:rgb(96.078431%,92.156863%,96.078431%);fill-opacity:1;" d="M 197.632812 102.292969 C 198.566406 103.785156 195.765625 106.585938 193.667969 106.773438 L 169.167969 95.574219 C 168.234375 95.011719 167.535156 95.011719 166.832031 94.078125 C 165.898438 92.585938 169.398438 85.492188 175.933594 90.347656 C 181.535156 93.894531 191.566406 98.933594 197.632812 102.292969 Z M 197.632812 102.292969 "/>
<path style=" stroke:none;fill-rule:nonzero;fill:rgb(96.078431%,92.156863%,96.078431%);fill-opacity:1;" d="M 155.167969 69.066406 C 158.667969 70.375 162.167969 75.785156 163.800781 77.652344 C 166.367188 80.453125 170.800781 86.238281 173.601562 88.667969 C 174.066406 90.71875 171.5 95.011719 167.300781 94.640625 C 165.199219 92.585938 160.066406 88.851562 157.265625 86.054688 C 153.066406 81.574219 150.734375 79.148438 149.566406 77.09375 C 147.699219 73.359375 150.964844 67.386719 155.167969 69.066406 Z M 155.167969 69.066406 "/>
<path style=" stroke:none;fill-rule:nonzero;fill:rgb(6.27451%,83.529412%,89.019608%);fill-opacity:1;" d="M 256.667969 53.945312 C 255.035156 58.988281 255.035156 70 255.964844 76.71875 C 256.667969 81.199219 263.898438 83.8125 264.832031 79.707031 C 266.464844 72.800781 269.035156 60.667969 266.699219 55.066406 C 264.367188 50.398438 257.832031 50.398438 256.667969 53.945312 Z M 256.667969 53.945312 "/>
<path style=" stroke:none;fill-rule:nonzero;fill:rgb(94.117647%,75.686275%,49.019608%);fill-opacity:1;" d="M 256.433594 98.746094 L 254.566406 103.414062 C 251.535156 106.773438 248.734375 105.839844 245.234375 107.332031 C 244.066406 107.707031 241.734375 109.761719 240.800781 110.320312 C 239.867188 110.691406 238.699219 110.878906 236.832031 109.945312 C 237.066406 108.265625 239.167969 103.972656 245 100.425781 C 249.667969 100.054688 249.898438 100.800781 251.765625 98.746094 Z M 256.433594 98.746094 "/>
<path style=" stroke:none;fill-rule:nonzero;fill:rgb(6.27451%,83.529412%,89.019608%);fill-opacity:1;" d="M 248.964844 99.679688 C 250.601562 94.078125 252.933594 86.238281 254.332031 81.011719 C 255.035156 78.585938 255.265625 78.027344 256.199219 75.601562 C 262.734375 75.785156 265.300781 77.28125 264.367188 80.828125 C 263.199219 85.679688 258.066406 97.441406 255.5 101.921875 C 254.566406 102.667969 248.5 101.734375 248.964844 99.679688 Z M 248.964844 99.679688 "/>
<path style=" stroke:none;fill-rule:nonzero;fill:rgb(94.117647%,75.686275%,49.019608%);fill-opacity:1;" d="M 217.464844 98.746094 C 216.535156 99.679688 216.535156 100.800781 215.132812 103.039062 C 213.734375 104.535156 213.734375 105.652344 214.199219 106.214844 C 214.667969 106.585938 215.132812 106.960938 216.300781 105.839844 L 218.398438 102.480469 L 218.167969 104.71875 L 217.933594 106.214844 C 218.167969 108.265625 217.699219 111.066406 218.867188 111.8125 C 219.566406 112.375 220.964844 112.558594 223.300781 112.375 C 224.933594 112 224.699219 109.199219 226.800781 106.027344 C 227.5 103.785156 227.964844 103.972656 227.5 100.238281 L 227.5 95.199219 L 221.898438 95.011719 C 221.433594 95.574219 220.5 96.878906 219.800781 97.441406 C 218.398438 98.558594 218.632812 97.625 217.464844 98.746094 Z M 217.464844 98.746094 "/>
<path style=" stroke:none;fill-rule:nonzero;fill:rgb(47.058824%,47.058824%,47.058824%);fill-opacity:1;" d="M 233.332031 155.867188 C 233.566406 155.867188 233.566406 155.867188 233.332031 155.867188 L 216.535156 148.027344 L 198.566406 156.238281 L 215.601562 164.078125 L 233.566406 155.867188 Z M 233.332031 155.867188 "/>
<path style=" stroke:none;fill-rule:nonzero;fill:rgb(38.823529%,38.431373%,38.431373%);fill-opacity:1;" d="M 214.433594 165.199219 L 214.433594 164.828125 C 214.433594 164.640625 214.433594 164.640625 214.667969 164.453125 L 214.898438 164.265625 L 215.132812 164.078125 L 198.101562 156.238281 C 198.101562 156.238281 197.867188 156.238281 197.867188 156.425781 L 197.867188 157.171875 C 197.867188 157.359375 197.867188 157.546875 198.101562 157.546875 L 215.132812 165.386719 C 214.898438 165.386719 214.898438 165.199219 214.898438 165.011719 Z M 214.433594 165.199219 "/>
<path style=" stroke:none;fill-rule:nonzero;fill:rgb(28.235294%,30.196078%,29.411765%);fill-opacity:1;" d="M 233.800781 156.238281 C 233.800781 155.867188 233.566406 155.679688 233.101562 155.867188 L 215.132812 164.078125 C 214.667969 164.265625 214.433594 164.640625 214.433594 165.011719 L 214.433594 165.574219 C 214.433594 165.945312 214.667969 166.132812 215.132812 165.945312 L 233.101562 157.734375 C 233.566406 157.546875 233.800781 157.171875 233.800781 156.800781 Z M 233.800781 156.238281 "/>
<path style=" stroke:none;fill-rule:nonzero;fill:rgb(63.137255%,63.921569%,63.529412%);fill-opacity:1;" d="M 206.5 150.640625 L 205.566406 158.480469 L 209.066406 160.160156 L 209.765625 152.132812 Z M 206.5 150.640625 "/>
<path style=" stroke:none;fill-rule:nonzero;fill:rgb(54.117647%,54.901961%,54.509804%);fill-opacity:1;" d="M 224 145.601562 L 220.265625 144.292969 L 209.765625 152.132812 L 209.066406 160.160156 L 224.933594 152.878906 Z M 185.5 157.171875 L 185.964844 125.253906 L 182 123.574219 L 182 159.039062 C 182 159.414062 182 159.601562 182.234375 159.972656 C 182.464844 160.160156 182.464844 160.347656 182.699219 160.535156 L 186.199219 162.214844 C 185.734375 162.027344 185.5 161.464844 185.5 160.90625 Z M 185.5 157.171875 "/>
<path style=" stroke:none;fill-rule:nonzero;fill:rgb(54.117647%,54.901961%,54.509804%);fill-opacity:1;" d="M 245.933594 95.011719 L 247.332031 95.011719 L 243.832031 93.332031 L 242.433594 93.332031 C 242.199219 93.332031 242.199219 93.332031 241.964844 93.519531 L 184.566406 120.027344 C 183.167969 120.773438 182 122.265625 182 123.574219 L 185.5 125.066406 C 185.5 123.761719 187.132812 122.265625 188.535156 121.707031 L 245.464844 95.011719 Z M 245.933594 95.011719 "/>
<path style=" stroke:none;fill-rule:nonzero;fill:rgb(63.137255%,63.921569%,63.529412%);fill-opacity:1;" d="M 248.035156 96.320312 C 248.035156 95.574219 247.566406 95.011719 247.101562 94.828125 C 246.632812 94.640625 245.933594 94.640625 245.464844 95.011719 L 188.066406 121.519531 C 186.667969 122.265625 185.5 123.761719 185.5 125.253906 L 185.5 160.71875 C 185.5 162.027344 186.667969 162.585938 188.066406 162.027344 L 245.464844 135.519531 C 246.867188 134.773438 248.035156 133.28125 248.035156 131.785156 Z M 248.035156 96.320312 "/>
<path style=" stroke:none;fill-rule:nonzero;fill:rgb(2.745098%,61.568627%,65.882353%);fill-opacity:1;" d="M 220.964844 95.945312 C 223.300781 90.347656 225.632812 81.761719 227.734375 76.347656 C 228.667969 74.105469 229.832031 73.359375 231.234375 70.933594 C 237.535156 71.492188 239.398438 73.734375 238.234375 77.28125 C 236.601562 82.132812 231 92.773438 227.964844 96.878906 C 226.101562 98 222.367188 97.441406 220.964844 95.945312 Z M 220.964844 95.945312 "/>
<path style=" stroke:none;fill-rule:nonzero;fill:rgb(61.568627%,68.627451%,69.019608%);fill-opacity:1;" d="M 154 131.414062 C 153.300781 137.574219 146.765625 137.386719 144.667969 135.148438 L 133.933594 125.625 L 143.265625 117.414062 C 147.234375 121.332031 150.734375 127.679688 154 131.414062 Z M 154 131.414062 "/>
<path style=" stroke:none;fill-rule:nonzero;fill:rgb(100%,85.882353%,65.490196%);fill-opacity:1;" d="M 164.734375 104.535156 C 165.898438 103.785156 167.300781 103.785156 170.101562 102.667969 C 172.199219 101.546875 173.367188 101.546875 174.066406 101.921875 C 174.535156 102.292969 175 102.667969 173.367188 103.601562 L 169.867188 105.652344 L 173.132812 106.027344 L 175 105.839844 L 179.898438 103.414062 C 181.535156 102.480469 181.765625 103.414062 182.699219 104.90625 C 184.101562 106.773438 180.832031 108.453125 177.566406 110.507812 C 174.535156 112.1875 174.765625 112.558594 171.265625 112.1875 L 165.667969 111.625 L 162.867188 113.679688 L 158.199219 109.386719 C 158.898438 109.011719 160.535156 108.265625 161.234375 107.707031 C 163.332031 106.773438 163.332031 105.464844 164.734375 104.535156 Z M 164.734375 104.535156 "/>
<path style=" stroke:none;fill-rule:nonzero;fill:rgb(61.568627%,68.627451%,69.019608%);fill-opacity:1;" d="M 160.300781 108.078125 C 163.101562 107.894531 166.601562 110.878906 167.765625 112 L 155.867188 129.171875 C 153.765625 131.972656 151.898438 136.453125 146.765625 135.707031 C 143.5 135.148438 141.632812 132.160156 142.332031 130.105469 C 144.199219 122.828125 153.300781 115.734375 160.300781 108.078125 Z M 160.300781 108.078125 "/>
</g>
</svg>
